<?xml version="1.0" encoding="UTF-8" standalone="no"?>
<svg xmlns:svg="http://www.w3.org/2000/svg" xmlns="http://www.w3.org/2000/svg"
   width="371.04001" height="254">
  <g
     id="layer1"
     transform="translate(120.39799,73.219466)">
    <path
       style="font-size:230.00598145px;font-style:normal;font-weight:normal;fill:#231F20;fill-opacity:1;stroke:none;stroke-width:1px;stroke-linecap:butt;stroke-linejoin:miter;stroke-opacity:1;font-family:Arial Unicode MS"
       d="M 76.39954,85.302139 C 71.607597,103.79549 63.240688,117.5906 51.29879,126.68749 C 39.356628,135.78441 25.037422,140.33286 8.3411298,140.33287 C -18.612758,140.33286 -38.247852,131.89108 -50.564211,115.0075 C -62.880629,98.123964 -69.038824,77.815025 -69.038812,54.080624 C -69.038824,27.800754 -61.79499,7.2297639 -47.30729,-7.6324065 C -32.819656,-22.494287 -14.19533,-29.925299 8.5657451,-29.925467 C 24.588192,-29.925299 38.289706,-25.844794 49.67033,-17.683937 C 61.050692,-9.5227709 69.024524,2.4192595 73.59185,18.14219 L 52.253405,23.196032 C 48.659432,11.740782 43.1938,3.1305403 35.856494,-2.6347179 C 28.518954,-8.3996959 19.347175,-11.282255 8.3411298,-11.282404 C -9.6281586,-11.282255 -23.254801,-5.3861114 -32.53884,6.4060445 C -41.822974,18.198463 -46.465017,34.015102 -46.464983,53.856009 C -46.465017,76.766822 -41.579641,93.800125 -31.80884,104.95597 C -22.038137,116.11188 -9.2912361,121.68982 6.4319005,121.6898 C 19.30974,121.68982 29.773055,118.20829 37.821877,111.2452 C 45.870462,104.28216 51.504555,93.800125 54.724172,79.799066 L 76.39954,85.302139 z M 210.83174,92.489826 L 176.12869,92.489826 L 166.47024,140.33287 L 149.39948,140.33287 L 159.28255,92.489826 L 123.90565,92.489826 L 114.2472,140.33287 L 97.176444,140.33287 L 107.17182,92.489826 L 88.079527,92.489826 L 88.079527,75.8683 L 110.31643,75.8683 L 118.85181,34.988331 L 88.079527,34.988331 L 88.079527,18.366805 L 122.10873,18.366805 L 131.9918,-29.925467 L 148.72564,-29.925467 L 139.06718,18.366805 L 174.33177,18.366805 L 184.21484,-29.925467 L 200.94867,-29.925467 L 191.29022,18.366805 L 210.83174,18.366805 L 210.83174,34.988331 L 187.80868,34.988331 L 179.61023,75.8683 L 210.83174,75.8683 L 210.83174,92.489826 z M 171.07485,34.988331 L 135.58565,34.988331 L 127.38719,75.8683 L 162.53947,75.8683 L 171.07485,34.988331 z "
       id="text2239" />
  </g>
</svg>
