<?xml version="1.0" encoding="UTF-8" standalone="no"?>
<!DOCTYPE svg PUBLIC "-//W3C//DTD SVG 1.1//EN" "http://www.w3.org/Graphics/SVG/1.1/DTD/svg11.dtd">
<svg width="100%" height="100%" viewBox="0 0 300 50" version="1.1" xmlns="http://www.w3.org/2000/svg" xmlns:xlink="http://www.w3.org/1999/xlink" xml:space="preserve" xmlns:serif="http://www.serif.com/" style="fill-rule:evenodd;clip-rule:evenodd;stroke-linejoin:round;stroke-miterlimit:2;">
    <g transform="matrix(0.684315,0,0,0.773381,1.22041,0.433396)">
        <g transform="matrix(0.160918,0,0,0.160918,0.840719,-9.14279)">
            <path d="M88,216C169.7,226.2 361.7,318.3 392,448L0,448C99.5,439.9 184.5,311 88,216ZM120,64C152.3,99.6 167.7,147.9 166.4,197.6C249.3,231.3 373.7,321.3 400,448L496,448C455.3,231.9 222.8,79.5 120,64Z" style="fill-rule:nonzero;"/>
        </g>
        <g transform="matrix(1.46132,0,0,1.29302,-9.63966,8.47657)">
            <g transform="matrix(40,0,0,40,65.445,34.9588)">
                <path d="M0.048,-0.027L0.048,-0.183C0.076,-0.159 0.107,-0.142 0.14,-0.13C0.173,-0.118 0.207,-0.112 0.241,-0.112C0.261,-0.112 0.278,-0.114 0.293,-0.117C0.308,-0.121 0.32,-0.126 0.33,-0.132C0.34,-0.138 0.347,-0.146 0.352,-0.155C0.357,-0.163 0.359,-0.173 0.359,-0.183C0.359,-0.196 0.355,-0.208 0.348,-0.219C0.34,-0.23 0.329,-0.24 0.316,-0.249C0.302,-0.258 0.286,-0.267 0.268,-0.275C0.249,-0.284 0.229,-0.292 0.208,-0.301C0.153,-0.324 0.112,-0.352 0.085,-0.385C0.058,-0.418 0.045,-0.457 0.045,-0.504C0.045,-0.54 0.052,-0.572 0.067,-0.598C0.082,-0.624 0.101,-0.646 0.127,-0.663C0.152,-0.68 0.181,-0.692 0.214,-0.7C0.248,-0.708 0.283,-0.712 0.32,-0.712C0.356,-0.712 0.389,-0.71 0.417,-0.705C0.445,-0.701 0.471,-0.694 0.495,-0.685L0.495,-0.539C0.483,-0.547 0.47,-0.554 0.456,-0.561C0.442,-0.567 0.428,-0.572 0.414,-0.576C0.399,-0.58 0.384,-0.583 0.37,-0.585C0.355,-0.587 0.342,-0.588 0.329,-0.588C0.311,-0.588 0.294,-0.586 0.28,-0.583C0.265,-0.579 0.253,-0.575 0.243,-0.568C0.233,-0.562 0.225,-0.555 0.219,-0.546C0.214,-0.538 0.211,-0.528 0.211,-0.517C0.211,-0.505 0.214,-0.495 0.22,-0.486C0.226,-0.476 0.235,-0.468 0.247,-0.459C0.258,-0.451 0.272,-0.443 0.288,-0.435C0.304,-0.427 0.323,-0.419 0.343,-0.41C0.371,-0.398 0.396,-0.386 0.419,-0.373C0.441,-0.36 0.46,-0.345 0.476,-0.328C0.492,-0.312 0.504,-0.293 0.513,-0.271C0.521,-0.25 0.525,-0.225 0.525,-0.197C0.525,-0.158 0.518,-0.125 0.503,-0.098C0.488,-0.072 0.468,-0.05 0.443,-0.034C0.417,-0.017 0.388,-0.006 0.354,0.001C0.321,0.009 0.285,0.012 0.248,0.012C0.209,0.012 0.173,0.009 0.138,0.002C0.103,-0.004 0.073,-0.014 0.048,-0.027Z" style="fill-rule:nonzero;"/>
            </g>
            <g transform="matrix(40,0,0,40,87.8669,34.9588)">
                <path d="M0.514,-0.206L0.188,-0.206C0.193,-0.133 0.239,-0.097 0.325,-0.097C0.38,-0.097 0.429,-0.11 0.47,-0.136L0.47,-0.025C0.424,-0 0.364,0.012 0.29,0.012C0.209,0.012 0.147,-0.01 0.102,-0.055C0.057,-0.1 0.035,-0.162 0.035,-0.242C0.035,-0.325 0.059,-0.391 0.107,-0.439C0.156,-0.488 0.215,-0.512 0.285,-0.512C0.358,-0.512 0.414,-0.491 0.454,-0.447C0.494,-0.404 0.514,-0.345 0.514,-0.271L0.514,-0.206ZM0.371,-0.301C0.371,-0.372 0.342,-0.408 0.284,-0.408C0.259,-0.408 0.238,-0.398 0.22,-0.377C0.202,-0.357 0.191,-0.331 0.187,-0.301L0.371,-0.301Z" style="fill-rule:nonzero;"/>
            </g>
            <g transform="matrix(40,0,0,40,109.508,34.9588)">
                <path d="M0.391,-0.361C0.373,-0.371 0.351,-0.376 0.326,-0.376C0.293,-0.376 0.266,-0.364 0.248,-0.339C0.229,-0.315 0.219,-0.281 0.219,-0.239L0.219,-0L0.065,-0L0.065,-0.5L0.219,-0.5L0.219,-0.407L0.221,-0.407C0.246,-0.475 0.29,-0.509 0.353,-0.509C0.369,-0.509 0.382,-0.507 0.391,-0.503L0.391,-0.361Z" style="fill-rule:nonzero;"/>
            </g>
            <g transform="matrix(40,0,0,40,127.027,34.9588)">
                <path d="M0.541,-0.5L0.355,-0L0.179,-0L0.002,-0.5L0.167,-0.5L0.254,-0.192C0.264,-0.157 0.269,-0.127 0.271,-0.103L0.273,-0.103C0.275,-0.126 0.281,-0.155 0.291,-0.189L0.38,-0.5L0.541,-0.5Z" style="fill-rule:nonzero;"/>
            </g>
            <g transform="matrix(40,0,0,40,148.707,34.9588)">
                <path d="M0.143,-0.579C0.117,-0.579 0.096,-0.587 0.079,-0.602C0.063,-0.618 0.054,-0.637 0.054,-0.659C0.054,-0.682 0.063,-0.701 0.079,-0.716C0.096,-0.73 0.117,-0.738 0.143,-0.738C0.169,-0.738 0.191,-0.73 0.207,-0.716C0.224,-0.701 0.232,-0.682 0.232,-0.659C0.232,-0.636 0.224,-0.617 0.207,-0.602C0.191,-0.587 0.169,-0.579 0.143,-0.579ZM0.219,-0L0.065,-0L0.065,-0.5L0.219,-0.5L0.219,-0Z" style="fill-rule:nonzero;"/>
            </g>
            <g transform="matrix(40,0,0,40,160.074,34.9588)">
                <path d="M0.444,-0.018C0.409,0.002 0.359,0.012 0.293,0.012C0.216,0.012 0.154,-0.011 0.106,-0.058C0.059,-0.104 0.035,-0.164 0.035,-0.238C0.035,-0.323 0.061,-0.39 0.112,-0.439C0.163,-0.488 0.231,-0.512 0.316,-0.512C0.375,-0.512 0.417,-0.504 0.444,-0.489L0.444,-0.358C0.412,-0.382 0.376,-0.394 0.336,-0.394C0.292,-0.394 0.257,-0.381 0.231,-0.355C0.205,-0.329 0.192,-0.294 0.192,-0.248C0.192,-0.204 0.204,-0.169 0.229,-0.144C0.254,-0.119 0.288,-0.106 0.331,-0.106C0.369,-0.106 0.407,-0.118 0.444,-0.142L0.444,-0.018Z" style="fill-rule:nonzero;"/>
            </g>
            <g transform="matrix(40,0,0,40,179.273,34.9588)">
                <path d="M0.514,-0.206L0.188,-0.206C0.193,-0.133 0.239,-0.097 0.325,-0.097C0.38,-0.097 0.429,-0.11 0.47,-0.136L0.47,-0.025C0.424,-0 0.364,0.012 0.29,0.012C0.209,0.012 0.147,-0.01 0.102,-0.055C0.057,-0.1 0.035,-0.162 0.035,-0.242C0.035,-0.325 0.059,-0.391 0.107,-0.439C0.156,-0.488 0.215,-0.512 0.285,-0.512C0.358,-0.512 0.414,-0.491 0.454,-0.447C0.494,-0.404 0.514,-0.345 0.514,-0.271L0.514,-0.206ZM0.371,-0.301C0.371,-0.372 0.342,-0.408 0.284,-0.408C0.259,-0.408 0.238,-0.398 0.22,-0.377C0.202,-0.357 0.191,-0.331 0.187,-0.301L0.371,-0.301Z" style="fill-rule:nonzero;"/>
            </g>
            <g transform="matrix(40,0,0,40,200.914,34.9588)">
                <path d="M0.048,-0.027L0.048,-0.183C0.076,-0.159 0.107,-0.142 0.14,-0.13C0.173,-0.118 0.207,-0.112 0.241,-0.112C0.261,-0.112 0.278,-0.114 0.293,-0.117C0.308,-0.121 0.32,-0.126 0.33,-0.132C0.34,-0.138 0.347,-0.146 0.352,-0.155C0.357,-0.163 0.359,-0.173 0.359,-0.183C0.359,-0.196 0.355,-0.208 0.348,-0.219C0.34,-0.23 0.329,-0.24 0.316,-0.249C0.302,-0.258 0.286,-0.267 0.268,-0.275C0.249,-0.284 0.229,-0.292 0.208,-0.301C0.153,-0.324 0.112,-0.352 0.085,-0.385C0.058,-0.418 0.045,-0.457 0.045,-0.504C0.045,-0.54 0.052,-0.572 0.067,-0.598C0.082,-0.624 0.101,-0.646 0.127,-0.663C0.152,-0.68 0.181,-0.692 0.214,-0.7C0.248,-0.708 0.283,-0.712 0.32,-0.712C0.356,-0.712 0.389,-0.71 0.417,-0.705C0.445,-0.701 0.471,-0.694 0.495,-0.685L0.495,-0.539C0.483,-0.547 0.47,-0.554 0.456,-0.561C0.442,-0.567 0.428,-0.572 0.414,-0.576C0.399,-0.58 0.384,-0.583 0.37,-0.585C0.355,-0.587 0.342,-0.588 0.329,-0.588C0.311,-0.588 0.294,-0.586 0.28,-0.583C0.265,-0.579 0.253,-0.575 0.243,-0.568C0.233,-0.562 0.225,-0.555 0.219,-0.546C0.214,-0.538 0.211,-0.528 0.211,-0.517C0.211,-0.505 0.214,-0.495 0.22,-0.486C0.226,-0.476 0.235,-0.468 0.247,-0.459C0.258,-0.451 0.272,-0.443 0.288,-0.435C0.304,-0.427 0.323,-0.419 0.343,-0.41C0.371,-0.398 0.396,-0.386 0.419,-0.373C0.441,-0.36 0.46,-0.345 0.476,-0.328C0.492,-0.312 0.504,-0.293 0.513,-0.271C0.521,-0.25 0.525,-0.225 0.525,-0.197C0.525,-0.158 0.518,-0.125 0.503,-0.098C0.488,-0.072 0.468,-0.05 0.443,-0.034C0.417,-0.017 0.388,-0.006 0.354,0.001C0.321,0.009 0.285,0.012 0.248,0.012C0.209,0.012 0.173,0.009 0.138,0.002C0.103,-0.004 0.073,-0.014 0.048,-0.027Z" style="fill-rule:nonzero;"/>
            </g>
            <g transform="matrix(40,0,0,40,222.34,34.9588)">
                <path d="M0.367,-0.006C0.344,0.006 0.31,0.012 0.264,0.012C0.155,0.012 0.101,-0.044 0.101,-0.157L0.101,-0.386L0.02,-0.386L0.02,-0.5L0.101,-0.5L0.101,-0.608L0.255,-0.652L0.255,-0.5L0.367,-0.5L0.367,-0.386L0.255,-0.386L0.255,-0.184C0.255,-0.132 0.276,-0.106 0.317,-0.106C0.333,-0.106 0.35,-0.111 0.367,-0.12L0.367,-0.006Z" style="fill-rule:nonzero;"/>
            </g>
            <g transform="matrix(40,0,0,40,237.906,34.9588)">
                <path d="M0.481,-0L0.335,-0L0.335,-0.072L0.333,-0.072C0.299,-0.016 0.25,0.012 0.184,0.012C0.136,0.012 0.097,-0.002 0.07,-0.029C0.042,-0.057 0.028,-0.093 0.028,-0.139C0.028,-0.236 0.085,-0.292 0.2,-0.307L0.336,-0.325C0.336,-0.38 0.306,-0.407 0.247,-0.407C0.188,-0.407 0.131,-0.389 0.077,-0.354L0.077,-0.47C0.099,-0.481 0.128,-0.491 0.165,-0.5C0.203,-0.508 0.236,-0.512 0.267,-0.512C0.41,-0.512 0.481,-0.441 0.481,-0.299L0.481,-0ZM0.336,-0.203L0.336,-0.237L0.245,-0.225C0.195,-0.219 0.17,-0.196 0.17,-0.157C0.17,-0.14 0.176,-0.125 0.188,-0.114C0.2,-0.103 0.217,-0.097 0.238,-0.097C0.267,-0.097 0.29,-0.107 0.309,-0.127C0.327,-0.147 0.336,-0.173 0.336,-0.203Z" style="fill-rule:nonzero;"/>
            </g>
            <g transform="matrix(40,0,0,40,259.429,34.9588)">
                <path d="M0.444,-0.018C0.409,0.002 0.359,0.012 0.293,0.012C0.216,0.012 0.154,-0.011 0.106,-0.058C0.059,-0.104 0.035,-0.164 0.035,-0.238C0.035,-0.323 0.061,-0.39 0.112,-0.439C0.163,-0.488 0.231,-0.512 0.316,-0.512C0.375,-0.512 0.417,-0.504 0.444,-0.489L0.444,-0.358C0.412,-0.382 0.376,-0.394 0.336,-0.394C0.292,-0.394 0.257,-0.381 0.231,-0.355C0.205,-0.329 0.192,-0.294 0.192,-0.248C0.192,-0.204 0.204,-0.169 0.229,-0.144C0.254,-0.119 0.288,-0.106 0.331,-0.106C0.369,-0.106 0.407,-0.118 0.444,-0.142L0.444,-0.018Z" style="fill-rule:nonzero;"/>
            </g>
            <g transform="matrix(40,0,0,40,278.629,34.9588)">
                <path d="M0.566,-0L0.381,-0L0.221,-0.248L0.219,-0.248L0.219,-0L0.065,-0L0.065,-0.74L0.219,-0.74L0.219,-0.269L0.221,-0.269L0.37,-0.5L0.553,-0.5L0.374,-0.265L0.566,-0Z" style="fill-rule:nonzero;"/>
            </g>
        </g>
    </g>
</svg>
