<?xml version="1.0" encoding="utf-8"?>
<!-- Generator: Adobe Illustrator 18.1.1, SVG Export Plug-In . SVG Version: 6.00 Build 0)  -->
<svg version="1.1" id="Layer_1" xmlns="http://www.w3.org/2000/svg" xmlns:xlink="http://www.w3.org/1999/xlink" x="0px" y="0px"
	 width="205.4px" height="59.4px" viewBox="-202 367.6 205.4 59.4" enable-background="new -202 367.6 205.4 59.4"
	 xml:space="preserve">
<g>
	<g>
		<path fill="#F05138" d="M-142.6,384.1c0-0.6,0-1.2,0-1.8c0-1.3-0.1-2.6-0.3-3.9c-0.2-1.3-0.6-2.5-1.2-3.7
			c-0.6-1.2-1.4-2.2-2.3-3.2c-0.9-0.9-2-1.7-3.2-2.3c-1.2-0.6-2.4-1-3.7-1.2c-1.3-0.2-2.6-0.3-3.9-0.3c-0.6,0-1.2,0-1.8,0
			c-0.7,0-1.4,0-2.1,0h-15.7h-6.5c-0.7,0-1.4,0-2.1,0c-0.6,0-1.2,0-1.8,0c-0.3,0-0.7,0-1,0c-1,0-2,0.1-2.9,0.3
			c-1,0.2-1.9,0.4-2.8,0.8c-0.3,0.1-0.6,0.3-0.9,0.4c-0.9,0.4-1.7,1-2.4,1.6c-0.2,0.2-0.5,0.4-0.7,0.7c-0.9,0.9-1.7,2-2.3,3.2
			c-0.6,1.2-1,2.4-1.2,3.7c-0.2,1.3-0.3,2.6-0.3,3.9c0,0.6,0,1.2,0,1.8c0,0.7,0,1.4,0,2.1v9.7v12.6c0,0.7,0,1.4,0,2.1
			c0,0.6,0,1.2,0,1.8c0,1.3,0.1,2.6,0.3,3.9c0.2,1.3,0.6,2.5,1.2,3.7c0.6,1.2,1.4,2.2,2.3,3.2c0.9,0.9,2,1.7,3.2,2.3
			c1.2,0.6,2.4,1,3.7,1.2c1.3,0.2,2.6,0.3,3.9,0.3c0.6,0,1.2,0,1.8,0c0.7,0,1.4,0,2.1,0h22.2c0.7,0,1.4,0,2.1,0c0.6,0,1.2,0,1.8,0
			c1.3,0,2.6-0.1,3.9-0.3c1.3-0.2,2.5-0.6,3.7-1.2c1.2-0.6,2.2-1.4,3.2-2.3c0.9-0.9,1.7-2,2.3-3.2c0.6-1.2,1-2.4,1.2-3.7
			c0.2-1.3,0.3-2.6,0.3-3.9c0-0.6,0-1.2,0-1.8c0-0.7,0-1.4,0-2.1v-22.2C-142.6,385.5-142.6,384.8-142.6,384.1z"/>
		<path fill="#FFFFFF" d="M-154.9,404.3C-154.9,404.3-154.9,404.3-154.9,404.3c0.1-0.2,0.1-0.5,0.2-0.7c2.5-9.8-3.6-21.4-13.7-27.5
			c4.5,6,6.4,13.4,4.7,19.8c-0.2,0.6-0.3,1.1-0.6,1.7c-0.2-0.1-0.5-0.3-0.9-0.5c0,0-10.1-6.3-21.1-17.3c-0.3-0.3,5.9,8.8,12.8,16.1
			c-3.3-1.8-12.4-8.5-18.2-13.8c0.7,1.2,1.6,2.3,2.5,3.4c4.8,6.1,11.1,13.7,18.7,19.5c-5.3,3.2-12.8,3.5-20.3,0
			c-1.8-0.9-3.6-1.9-5.2-3.1c3.2,5.1,8,9.4,14,12c7.1,3,14.1,2.8,19.3,0.1l0,0c0,0,0.1,0,0.1,0c0.2-0.1,0.4-0.2,0.6-0.4
			c2.5-1.3,7.5-2.6,10.2,2.6C-151.2,417.3-149.8,410.5-154.9,404.3z"/>
	</g>
	<g>
		<path d="M-122.8,421.2c1.3,0.9,2.8,1.6,4.5,2.2c1.7,0.5,3.5,0.8,5.4,0.8c3.4,0,6.1-0.9,8.1-2.6c1.9-1.8,2.9-4.1,2.9-7
			c0-2.6-0.7-4.7-2.1-6.4c-1.4-1.6-3.8-3.1-7.1-4.5c-3.6-1.3-6.4-2.9-8.5-4.9c-2.1-2-3.2-4.6-3.2-7.8c0-1.7,0.3-3.3,1-4.7
			c0.7-1.4,1.6-2.7,2.7-3.7s2.6-1.8,4.2-2.4c1.6-0.6,3.4-0.9,5.3-0.9c2.2,0,4.1,0.2,5.6,0.7c1.5,0.5,2.7,0.9,3.4,1.4l-1.2,2.7
			c-0.6-0.5-1.7-0.9-3-1.4c-1.4-0.5-3-0.7-4.9-0.7c-1.8,0-3.4,0.3-4.6,0.8c-1.3,0.5-2.3,1.2-3,2c-0.8,0.8-1.3,1.7-1.6,2.7
			c-0.3,1-0.5,1.9-0.5,2.9c0,2.6,0.8,4.6,2.3,6.1c1.5,1.5,3.9,2.9,7.2,4.2c1.9,0.8,3.5,1.6,5,2.5c1.4,0.9,2.6,1.8,3.6,2.9
			c1,1.1,1.7,2.2,2.2,3.6c0.5,1.3,0.7,2.8,0.7,4.5c0,1.7-0.3,3.3-0.9,4.8s-1.5,2.9-2.7,4.1c-1.2,1.2-2.7,2.1-4.5,2.8
			c-1.8,0.7-3.9,1-6.3,1c-1,0-2-0.1-3-0.2c-1-0.2-2-0.4-3-0.7c-1-0.3-1.9-0.6-2.7-1c-0.8-0.4-1.6-0.8-2.2-1.2L-122.8,421.2z"/>
		<path d="M-92.7,393.3l5.4,18.7c0.6,1.9,1.1,3.7,1.5,5.4c0.5,1.7,0.9,3.3,1.2,4.9h0.2c0.4-1.6,0.9-3.2,1.4-4.9
			c0.6-1.7,1.1-3.5,1.8-5.5l6.5-18.7h3l6.2,18.5c0.6,2,1.2,3.9,1.8,5.6c0.6,1.7,1,3.4,1.4,4.9h0.2c0.3-1.6,0.7-3.2,1.2-4.9
			c0.5-1.6,1-3.5,1.7-5.6l5.8-18.6h3.3l-10.8,33h-2.8l-6.1-18.4c-0.7-2-1.3-3.8-1.9-5.6c-0.6-1.8-1-3.6-1.4-5.5h-0.1
			c-0.5,2-1.1,3.9-1.6,5.7c-0.6,1.8-1.2,3.7-1.9,5.6l-6.5,18.3H-86l-10-33L-92.7,393.3L-92.7,393.3z"/>
		<path d="M-44.5,383.3c0-0.8,0.3-1.4,0.8-2c0.5-0.6,1.2-0.8,2-0.8s1.4,0.3,2,0.8c0.5,0.5,0.8,1.2,0.8,2c0,0.8-0.3,1.4-0.8,2
			c-0.6,0.5-1.2,0.8-2,0.8s-1.4-0.3-2-0.8C-44.2,384.7-44.5,384.1-44.5,383.3z M-43.3,426.3v-33h3.2v33L-43.3,426.3L-43.3,426.3z"/>
		<path d="M-26.9,426.3v-30.4h-4.7v-2.5h4.7v-1.9c0-2.1,0.2-4,0.5-5.8c0.4-1.8,1-3.3,1.8-4.6c0.8-1.3,2-2.3,3.3-3.1
			c1.4-0.8,3.1-1.1,5.1-1.1c1.1,0,2,0.1,2.8,0.3c0.8,0.2,1.5,0.5,2,0.8l-1,2.5c-0.5-0.2-1-0.4-1.6-0.6c-0.6-0.2-1.4-0.3-2.4-0.3
			c-1.6,0-2.8,0.3-3.7,1c-0.9,0.6-1.7,1.5-2.2,2.6c-0.5,1.1-0.9,2.3-1.1,3.8c-0.2,1.5-0.3,3-0.3,4.5v1.9H-8v2.5h-15.6v30.4
			L-26.9,426.3L-26.9,426.3z"/>
		<path d="M-5.7,386v7.4h9.1v2.5h-9.1v21.5c0,2.2,0.4,3.9,1.1,5.1c0.7,1.2,1.9,1.8,3.7,1.8c0.8,0,1.5,0,2.1-0.1
			c0.6-0.1,1.1-0.2,1.5-0.3l0.3,2.5c-1.1,0.5-2.6,0.8-4.4,0.8c-1.5,0-2.8-0.3-3.7-0.8c-1-0.5-1.7-1.2-2.3-2.1c-0.6-0.9-1-2-1.2-3.2
			c-0.2-1.3-0.3-2.6-0.3-4.1v-20.9h0.2v-2.5h-0.2v-6.1L-5.7,386z"/>
	</g>
</g>
</svg>
