<?xml version="1.0" encoding="UTF-8" standalone="no"?>
<!-- Created with Inkscape (http://www.inkscape.org/) -->

<svg
   xmlns:dc="http://purl.org/dc/elements/1.1/"
   xmlns:cc="http://creativecommons.org/ns#"
   xmlns:rdf="http://www.w3.org/1999/02/22-rdf-syntax-ns#"
   xmlns:svg="http://www.w3.org/2000/svg"
   xmlns="http://www.w3.org/2000/svg"
   xmlns:sodipodi="http://sodipodi.sourceforge.net/DTD/sodipodi-0.dtd"
   xmlns:inkscape="http://www.inkscape.org/namespaces/inkscape"
   width="210mm"
   height="110mm"
   viewBox="0 0 210 110"
   version="1.1"
   id="svg2302"
   inkscape:version="0.92.2 (5c3e80d, 2017-08-06)"
   sodipodi:docname="java-logo.svg">
  <defs
     id="defs2296">
    <clipPath
       clipPathUnits="userSpaceOnUse"
       id="clipPath1239">
      <path
         d="m 214.313,224.438 h 103.68 v 86.4 h -103.68 z"
         id="path1237"
         inkscape:connector-curvature="0" />
    </clipPath>
    <clipPath
       clipPathUnits="userSpaceOnUse"
       id="clipPath1239-7">
      <path
         d="m 214.313,224.438 h 103.68 v 86.4 h -103.68 z"
         id="path1237-5"
         inkscape:connector-curvature="0" />
    </clipPath>
  </defs>
  <sodipodi:namedview
     id="base"
     pagecolor="#ffffff"
     bordercolor="#666666"
     borderopacity="1.0"
     inkscape:pageopacity="0.0"
     inkscape:pageshadow="2"
     inkscape:zoom="1.979899"
     inkscape:cx="456.94472"
     inkscape:cy="79.859083"
     inkscape:document-units="mm"
     inkscape:current-layer="layer1"
     showgrid="false"
     inkscape:window-width="2558"
     inkscape:window-height="2774"
     inkscape:window-x="-10"
     inkscape:window-y="0"
     inkscape:window-maximized="0" />
  <metadata
     id="metadata2299">
    <rdf:RDF>
      <cc:Work
         rdf:about="">
        <dc:format>image/svg+xml</dc:format>
        <dc:type
           rdf:resource="http://purl.org/dc/dcmitype/StillImage" />
        <dc:title></dc:title>
      </cc:Work>
    </rdf:RDF>
  </metadata>
  <g
     inkscape:label="Layer 1"
     inkscape:groupmode="layer"
     id="layer1"
     transform="translate(0,-187)">
    <g
       transform="matrix(2.5947751,0,0,-2.5947751,-584.40772,936.46517)"
       id="g1233">
      <g
         id="g1235"
         clip-path="url(#clipPath1239-7)">
        <g
           id="g1241"
           transform="translate(241.034,270.82)">
          <path
             d="m 0,0 c 1.813,-2.084 -0.476,-3.965 -0.476,-3.965 0,0 4.604,2.378 2.489,5.353 C 0.039,4.166 -1.477,5.544 6.723,10.3 6.723,10.3 -6.147,7.086 0,0"
             style="fill:#f8971d;fill-opacity:1;fill-rule:nonzero;stroke:none"
             id="path1243"
             inkscape:connector-curvature="0" />
        </g>
        <g
           id="g1245"
           transform="translate(243.047,288.798)">
          <path
             d="m 0,0 c 0,0 3.906,-3.906 -3.704,-9.916 -6.105,-4.82 -1.392,-7.57 -0.004,-10.709 -3.562,3.213 -6.177,6.044 -4.423,8.68 C -5.557,-8.08 1.578,-6.207 0,0"
             style="fill:#f8971d;fill-opacity:1;fill-rule:nonzero;stroke:none"
             id="path1247"
             inkscape:connector-curvature="0" />
        </g>
        <g
           id="g1249"
           transform="translate(268.468,247.252)">
          <path
             d="m 0,0 c -0.385,-0.553 -0.913,-0.829 -1.586,-0.829 -1.301,0 -1.951,0.881 -1.951,2.645 0,0.911 0.18,1.613 0.54,2.105 0.36,0.493 0.862,0.739 1.504,0.739 0.627,0 1.091,-0.293 1.391,-0.877 L -0.513,3.419 c -0.232,0.369 -0.532,0.553 -0.901,0.553 -0.389,0 -0.692,-0.182 -0.909,-0.548 -0.215,-0.366 -0.322,-0.852 -0.322,-1.457 0,-1.401 0.404,-2.102 1.217,-2.102 0.383,0 0.734,0.185 1.05,0.553 z"
             style="fill:#58839f;fill-opacity:1;fill-rule:nonzero;stroke:none"
             id="path1251"
             inkscape:connector-curvature="0" />
        </g>
        <g
           id="g1253"
           transform="translate(272.425,249.116)">
          <path
             d="m 0,0 c 0,0.758 -0.107,1.311 -0.323,1.658 -0.2,0.321 -0.514,0.482 -0.941,0.482 -0.815,0 -1.224,-0.671 -1.224,-2.014 0,-0.769 0.109,-1.327 0.325,-1.675 0.2,-0.32 0.513,-0.481 0.939,-0.481 C -0.408,-2.03 0,-1.353 0,0 m 0.901,0.15 c 0,-0.959 -0.209,-1.682 -0.625,-2.172 -0.378,-0.448 -0.908,-0.671 -1.586,-0.671 -0.679,0 -1.187,0.197 -1.524,0.592 -0.369,0.437 -0.553,1.124 -0.553,2.061 0,0.953 0.207,1.674 0.623,2.164 0.38,0.447 0.908,0.671 1.588,0.671 1.384,0 2.077,-0.882 2.077,-2.645"
             style="fill:#58839f;fill-opacity:1;fill-rule:nonzero;stroke:none"
             id="path1255"
             inkscape:connector-curvature="0" />
        </g>
        <g
           id="g1257"
           transform="translate(279.793,246.502)">
          <path
             d="m 0,0 h -0.892 c -0.031,1.506 -0.119,2.922 -0.26,4.248 H -1.16 L -2.518,0 h -0.68 l -1.35,4.248 H -4.556 C -4.657,2.975 -4.72,1.559 -4.746,0 h -0.813 c 0.052,1.895 0.184,3.672 0.395,5.331 h 1.105 l 1.287,-3.918 h 0.008 l 1.296,3.918 h 1.059 C -0.179,3.388 -0.042,1.611 0,0"
             style="fill:#58839f;fill-opacity:1;fill-rule:nonzero;stroke:none"
             id="path1259"
             inkscape:connector-curvature="0" />
        </g>
        <g
           id="g1261"
           transform="translate(283.434,250.126)">
          <path
             d="m 0,0 c 0,0.722 -0.401,1.082 -1.201,1.082 h -0.372 v -2.188 h 0.388 C -0.395,-1.106 0,-0.737 0,0 m 0.892,0.087 c 0,-0.553 -0.165,-0.985 -0.497,-1.295 -0.379,-0.358 -0.954,-0.538 -1.722,-0.538 h -0.246 v -1.879 h -0.852 v 5.331 c 0.132,0 0.344,0.002 0.64,0.008 h 0.726 c 1.301,0 1.951,-0.542 1.951,-1.627"
             style="fill:#58839f;fill-opacity:1;fill-rule:nonzero;stroke:none"
             id="path1263"
             inkscape:connector-curvature="0" />
        </g>
        <g
           id="g1265"
           transform="translate(287.462,248.255)">
          <path
             d="M 0,0 C -0.295,1.063 -0.575,1.995 -0.838,2.796 -1.143,1.784 -1.405,0.853 -1.619,0 Z M 1.326,-1.753 H 0.409 C 0.351,-1.501 0.263,-1.13 0.142,-0.639 h -1.904 c -0.089,-0.354 -0.171,-0.724 -0.245,-1.114 h -0.829 c 0.421,1.785 0.927,3.562 1.517,5.33 h 1.097 C 0.373,1.835 0.89,0.058 1.326,-1.753"
             style="fill:#58839f;fill-opacity:1;fill-rule:nonzero;stroke:none"
             id="path1267"
             inkscape:connector-curvature="0" />
        </g>
        <g
           id="g1269"
           transform="translate(292.453,251.161)">
          <path
             d="M 0,0 H -1.296 V -4.66 H -2.148 V 0 H -3.444 V 0.671 H 0 Z"
             style="fill:#58839f;fill-opacity:1;fill-rule:nonzero;stroke:none"
             id="path1271"
             inkscape:connector-curvature="0" />
        </g>
        <path
           d="m 294.079,246.502 h -0.854 v 5.331 h 0.854 z"
           style="fill:#58839f;fill-opacity:1;fill-rule:nonzero;stroke:none"
           id="path1273"
           inkscape:connector-curvature="0" />
        <g
           id="g1275"
           transform="translate(297.925,248.09)">
          <path
             d="m 0,0 c 0,0.61 -0.376,0.916 -1.129,0.916 h -0.569 v -1.864 c 0.179,-0.022 0.39,-0.031 0.632,-0.031 C -0.355,-0.979 0,-0.654 0,0 m -0.244,2.384 c 0,0.501 -0.284,0.75 -0.853,0.75 H -1.698 V 1.508 h 0.482 c 0.333,0 0.584,0.092 0.759,0.277 0.141,0.152 0.213,0.352 0.213,0.599 M 0.901,0.071 c 0,-0.501 -0.169,-0.898 -0.506,-1.193 -0.374,-0.322 -0.913,-0.482 -1.619,-0.482 -0.151,0 -0.375,0.003 -0.666,0.008 -0.293,0.006 -0.508,0.008 -0.644,0.008 v 5.331 h 1.611 c 0.516,0 0.908,-0.116 1.176,-0.347 C 0.501,3.18 0.625,2.885 0.625,2.511 0.625,1.943 0.371,1.548 -0.133,1.326 0.16,1.279 0.404,1.147 0.593,0.931 0.799,0.694 0.901,0.408 0.901,0.071"
             style="fill:#58839f;fill-opacity:1;fill-rule:nonzero;stroke:none"
             id="path1277"
             inkscape:connector-curvature="0" />
        </g>
        <g
           id="g1279"
           transform="translate(302.419,246.502)">
          <path
             d="m 0,0 h -2.536 v 5.331 h 0.854 V 0.655 H 0 Z"
             style="fill:#58839f;fill-opacity:1;fill-rule:nonzero;stroke:none"
             id="path1281"
             inkscape:connector-curvature="0" />
        </g>
        <g
           id="g1283"
           transform="translate(305.887,246.502)">
          <path
             d="m 0,0 h -2.678 v 5.331 h 2.646 V 4.668 h -1.793 v -1.62 h 1.477 V 2.408 H -1.825 V 0.671 H 0 Z"
             style="fill:#58839f;fill-opacity:1;fill-rule:nonzero;stroke:none"
             id="path1285"
             inkscape:connector-curvature="0" />
        </g>
        <g
           id="g1287"
           transform="translate(298.235,265.498)">
          <path
             d="m 0,0 h 0.434 v 1.666 h 0.567 v 0.34 H -0.591 V 1.666 H 0 Z"
             style="fill:#58839f;fill-opacity:1;fill-rule:evenodd;stroke:none"
             id="path1289"
             inkscape:connector-curvature="0" />
        </g>
        <g
           id="g1291"
           transform="translate(298.235,265.498)">
          <g
             id="g1293"
             transform="translate(3.303)">
            <path
               d="m 0,0 h 0.411 v 2.006 h -0.617 l -0.5,-1.367 -0.546,1.367 H -1.845 V 0 h 0.386 v 1.528 h 0.023 L -0.865,0 H -0.57 L 0,1.528 Z"
               style="fill:#58839f;fill-opacity:1;fill-rule:evenodd;stroke:none"
               id="path1295"
               inkscape:connector-curvature="0" />
          </g>
        </g>
        <g
           id="g1297"
           transform="translate(262.365,257.146)">
          <path
             d="m 0,0 c 0,-2.636 -0.89,-4.618 -2.668,-5.945 l -1.287,1.091 c 0.567,0.665 0.946,1.457 1.14,2.38 0.131,0.63 0.194,1.502 0.194,2.618 V 14.677 H 0 Z"
             style="fill:#58839f;fill-opacity:1;fill-rule:nonzero;stroke:none"
             id="path1299"
             inkscape:connector-curvature="0" />
        </g>
        <g
           id="g1301"
           transform="translate(271.657,258.237)">
          <path
             d="m 0,0 v 2.863 h -1.044 c -2.343,0 -3.517,-0.727 -3.517,-2.183 0,-1.261 0.622,-1.893 1.868,-1.893 0.857,0 1.755,0.405 2.693,1.213 M 2.475,-2.79 H 0.533 l -0.194,1.31 c -1.195,-1.035 -2.442,-1.552 -3.735,-1.552 -2.426,0 -3.639,1.116 -3.639,3.348 0,1.277 0.494,2.272 1.48,2.984 1.067,0.761 2.628,1.14 4.681,1.14 L 0,4.44 v 1.092 c 0,1.44 -0.833,2.159 -2.499,2.159 -1.085,0 -2.264,-0.234 -3.542,-0.703 l -0.364,1.528 c 1.503,0.664 3.034,0.996 4.586,0.996 2.862,0 4.294,-1.222 4.294,-3.664 z"
             style="fill:#58839f;fill-opacity:1;fill-rule:nonzero;stroke:none"
             id="path1303"
             inkscape:connector-curvature="0" />
        </g>
        <g
           id="g1305"
           transform="translate(286.262,267.529)">
          <path
             d="M 0,0 C -0.792,-4.463 -2.037,-8.491 -3.736,-12.082 H -6.818 L -10.53,0 h 2.694 l 2.304,-7.422 0.51,-2.233 c 1.197,3.299 1.996,6.517 2.401,9.655 z"
             style="fill:#58839f;fill-opacity:1;fill-rule:nonzero;stroke:none"
             id="path1307"
             inkscape:connector-curvature="0" />
        </g>
        <g
           id="g1309"
           transform="translate(294.024,258.237)">
          <path
             d="m 0,0 v 2.863 h -1.041 c -2.346,0 -3.519,-0.727 -3.519,-2.183 0,-1.261 0.624,-1.893 1.869,-1.893 0.858,0 1.755,0.405 2.691,1.213 M 2.477,-2.79 H 0.536 l -0.195,1.31 c -1.197,-1.035 -2.444,-1.552 -3.736,-1.552 -2.426,0 -3.639,1.116 -3.639,3.348 0,1.277 0.493,2.272 1.479,2.984 1.067,0.761 2.629,1.14 4.684,1.14 L 0,4.44 v 1.092 c 0,1.44 -0.831,2.159 -2.498,2.159 -1.082,0 -2.264,-0.234 -3.541,-0.703 l -0.365,1.528 c 1.506,0.664 3.033,0.996 4.587,0.996 2.861,0 4.294,-1.222 4.294,-3.664 z"
             style="fill:#58839f;fill-opacity:1;fill-rule:nonzero;stroke:none"
             id="path1311"
             inkscape:connector-curvature="0" />
        </g>
        <g
           id="g1313"
           transform="translate(234.351,259.721)">
          <path
             d="m 0,0 c 0,0 -1.436,-0.833 1.023,-1.117 2.979,-0.34 4.503,-0.291 7.786,0.33 0,0 0.863,-0.541 2.069,-1.007 C 3.515,-4.952 -5.781,-1.614 0,0"
             style="fill:#58839f;fill-opacity:1;fill-rule:nonzero;stroke:none"
             id="path1315"
             inkscape:connector-curvature="0" />
        </g>
        <g
           id="g1317"
           transform="translate(233.451,263.838)">
          <path
             d="m 0,0 c 0,0 -1.612,-1.192 0.85,-1.446 3.183,-0.327 5.698,-0.354 10.045,0.482 0,0 0.601,-0.609 1.548,-0.943 C 3.544,-4.51 -6.369,-2.113 0,0"
             style="fill:#58839f;fill-opacity:1;fill-rule:nonzero;stroke:none"
             id="path1319"
             inkscape:connector-curvature="0" />
        </g>
        <g
           id="g1321"
           transform="translate(250.768,256.677)">
          <path
             d="m 0,0 c 0,0 1.065,-0.874 -1.171,-1.554 -4.248,-1.284 -17.682,-1.674 -21.413,-0.051 -1.343,0.585 1.174,1.393 1.964,1.563 0.827,0.178 1.297,0.147 1.297,0.147 -1.491,1.051 -9.644,-2.064 -4.14,-2.955 C -8.457,-5.284 3.892,-1.756 0,0"
             style="fill:#58839f;fill-opacity:1;fill-rule:nonzero;stroke:none"
             id="path1323"
             inkscape:connector-curvature="0" />
        </g>
        <g
           id="g1325"
           transform="translate(235.041,268.103)">
          <path
             d="m 0,0 c 0,0 -6.834,-1.621 -2.419,-2.212 1.862,-0.249 5.578,-0.191 9.038,0.098 2.83,0.238 5.668,0.746 5.668,0.746 0,0 -0.997,-0.427 -1.718,-0.919 C 3.63,-4.113 -9.774,-3.264 -5.916,-1.398 -2.652,0.179 0,0 0,0"
             style="fill:#58839f;fill-opacity:1;fill-rule:nonzero;stroke:none"
             id="path1327"
             inkscape:connector-curvature="0" />
        </g>
        <g
           id="g1329"
           transform="translate(247.3,261.253)">
          <path
             d="M 0,0 C 7.053,3.665 3.792,7.189 1.516,6.713 0.959,6.596 0.708,6.496 0.708,6.496 c 0,0 0.208,0.324 0.604,0.465 4.504,1.583 7.967,-4.668 -1.455,-7.146 0,0 0.109,0.097 0.143,0.185"
             style="fill:#58839f;fill-opacity:1;fill-rule:nonzero;stroke:none"
             id="path1331"
             inkscape:connector-curvature="0" />
        </g>
        <g
           id="g1333"
           transform="translate(235.735,251.318)">
          <path
             d="m 0,0 c 6.772,-0.432 17.169,0.242 17.416,3.446 0,0 -0.474,-1.213 -5.596,-2.18 C 6.04,0.179 -1.087,0.307 -5.315,1.005 -5.315,1.005 -4.449,0.287 0,0"
             style="fill:#58839f;fill-opacity:1;fill-rule:nonzero;stroke:none"
             id="path1335"
             inkscape:connector-curvature="0" />
        </g>
      </g>
    </g>
  </g>
</svg>
